<svg width="287" height="289" viewBox="0 0 287 289" fill="none" xmlns="http://www.w3.org/2000/svg">
<path d="M18 289H0V232H18V289ZM172 18H133V77H154V39H172V95H115V56H57V193H77V116H95V211H57V271H77V232H95V271H116V232H134V271H154V232H172V271H193V232H250V289H39V38H115V0H172V18ZM287 289H269V232H287V289ZM211 271H232V250H211V271ZM18 211H0V193H18V211ZM287 211H116V193H154V134H133V172H115V116H172V193H193V116H250V193H269V18H249V95H231V0H287V211ZM211 193H232V173H211V193ZM95 18H18V172H0V0H95V18ZM211 155H232V134H211V155ZM95 95H77V77H95V95ZM211 95H193V0H211V95Z" fill="#B8B8B8"/>
</svg>
