<svg width="1049" height="240" viewBox="0 0 1049 240" fill="none" xmlns="http://www.w3.org/2000/svg">
<path d="M185.538 147.352C196.034 147.352 204.397 149.827 210.626 154.776C216.94 159.64 220.312 166.509 220.738 175.384H193.474C193.388 172.653 192.535 170.606 190.914 169.24C189.378 167.875 187.373 167.192 184.898 167.192C183.021 167.192 181.485 167.747 180.29 168.856C179.096 169.966 178.498 171.544 178.498 173.592C178.498 175.298 179.138 176.792 180.418 178.072C181.783 179.267 183.448 180.334 185.41 181.272C187.373 182.126 190.274 183.234 194.114 184.6C199.832 186.562 204.525 188.526 208.194 190.488C211.949 192.366 215.149 195.053 217.794 198.552C220.525 201.965 221.89 206.318 221.89 211.608C221.89 216.984 220.525 221.806 217.794 226.072C215.149 230.339 211.266 233.709 206.146 236.184C201.112 238.658 195.138 239.896 188.226 239.896C177.73 239.896 169.111 237.421 162.37 232.472C155.629 227.437 152.002 220.269 151.49 210.968H178.242C178.498 214.125 179.436 216.429 181.058 217.88C182.679 219.331 184.77 220.056 187.33 220.056C189.634 220.056 191.511 219.501 192.962 218.392C194.498 217.197 195.266 215.576 195.266 213.528C195.266 210.883 194.028 208.834 191.554 207.384C189.079 205.933 185.069 204.311 179.522 202.52C173.634 200.557 168.855 198.68 165.186 196.888C161.602 195.01 158.444 192.323 155.714 188.824C153.069 185.24 151.746 180.589 151.746 174.872C151.746 169.07 153.197 164.12 156.098 160.024C158.999 155.843 163.01 152.685 168.13 150.552C173.25 148.418 179.053 147.352 185.538 147.352ZM827.203 147.352C837.699 147.352 846.062 149.827 852.291 154.776C858.606 159.64 861.977 166.509 862.403 175.384H835.139C835.053 172.653 834.2 170.606 832.579 169.24C831.043 167.875 829.038 167.192 826.563 167.192C824.686 167.192 823.15 167.747 821.955 168.856C820.761 169.966 820.163 171.544 820.163 173.592C820.163 175.298 820.803 176.792 822.083 178.072C823.448 179.267 825.113 180.334 827.075 181.272C829.038 182.126 831.94 183.234 835.779 184.6C841.497 186.562 846.19 188.526 849.859 190.488C853.614 192.366 856.814 195.053 859.459 198.552C862.19 201.965 863.555 206.318 863.555 211.608C863.555 216.984 862.19 221.806 859.459 226.072C856.814 230.339 852.93 233.709 847.811 236.184C842.776 238.658 836.803 239.896 829.891 239.896C819.395 239.896 810.776 237.421 804.035 232.472C797.294 227.437 793.667 220.269 793.155 210.968H819.907C820.163 214.125 821.101 216.429 822.723 217.88C824.344 219.331 826.435 220.056 828.995 220.056C831.299 220.056 833.176 219.501 834.627 218.392C836.163 217.197 836.931 215.576 836.931 213.528C836.931 210.883 835.693 208.834 833.219 207.384C830.744 205.933 826.733 204.311 821.187 202.52C815.299 200.557 810.52 198.68 806.851 196.888C803.267 195.01 800.109 192.323 797.379 188.824C794.734 185.24 793.411 180.589 793.411 174.872C793.411 169.07 794.862 164.12 797.763 160.024C800.664 155.843 804.675 152.685 809.795 150.552C814.915 148.418 820.718 147.352 827.203 147.352ZM894.674 201.112C894.674 205.976 895.783 209.731 898.002 212.376C900.306 215.021 903.762 216.344 908.37 216.344C912.978 216.344 916.434 215.021 918.738 212.376C921.127 209.645 922.322 205.891 922.322 201.112V148.76H947.41V201.112C947.41 209.39 945.661 216.472 942.162 222.36C938.663 228.163 933.885 232.557 927.826 235.544C921.853 238.445 915.197 239.896 907.858 239.896C900.52 239.896 893.948 238.445 888.146 235.544C882.428 232.557 877.906 228.163 874.578 222.36C871.335 216.558 869.714 209.475 869.714 201.112V148.76H894.674V201.112ZM381.942 147.864C393.291 147.864 402.678 150.595 410.102 156.056C417.526 161.517 422.134 168.984 423.926 178.456H396.918C395.467 176.067 393.462 174.232 390.902 172.952C388.428 171.672 385.484 171.032 382.07 171.032C375.756 171.032 370.763 173.08 367.094 177.176C363.51 181.272 361.718 186.776 361.718 193.688C361.718 201.454 363.638 207.385 367.478 211.48C371.403 215.491 377.078 217.496 384.502 217.496C393.291 217.496 399.564 213.528 403.318 205.592H378.102V187.544H424.95V211.864C422.988 216.643 420.086 221.122 416.246 225.304C412.491 229.485 407.713 232.941 401.91 235.672C396.108 238.317 389.494 239.64 382.07 239.64C373.025 239.64 365.003 237.72 358.006 233.88C351.094 229.955 345.718 224.536 341.878 217.624C338.123 210.627 336.246 202.648 336.246 193.688C336.246 184.814 338.123 176.92 341.878 170.008C345.718 163.011 351.094 157.592 358.006 153.752C364.918 149.827 372.897 147.864 381.942 147.864ZM35.8799 148.76C45.3518 148.76 53.6293 150.68 60.7119 154.52C67.8798 158.274 73.3836 163.565 77.2236 170.392C81.0636 177.218 82.9844 185.027 82.9844 193.816C82.9843 202.52 81.021 210.286 77.0957 217.112C73.2557 223.939 67.7519 229.315 60.584 233.24C53.5013 237.08 45.2665 239 35.8799 239H0.167969V148.76H35.8799ZM146.901 168.856H114.261V183.576H143.061V202.648H114.261V218.904H146.901V239H89.1729V148.76H146.901V168.856ZM316.881 239H290.385L285.521 224.28H253.521L248.657 239H222.289L255.185 148.76H284.113L316.881 239ZM519.521 239H493.025L488.161 224.28H456.161L451.297 239H424.929L457.825 148.76H486.753L519.521 239ZM581.074 199.832V148.76H606.162V239H581.074L547.666 188.568V239H522.578V148.76H547.666L581.074 199.832ZM651.045 148.76C660.517 148.76 668.794 150.68 675.877 154.52C683.045 158.274 688.549 163.565 692.389 170.392C696.229 177.218 698.149 185.027 698.149 193.816C698.149 202.52 696.186 210.286 692.261 217.112C688.421 223.939 682.917 229.315 675.749 233.24C668.666 237.08 660.432 239 651.045 239H615.333V148.76H651.045ZM792.786 239H766.29L761.426 224.28H729.426L724.562 239H698.194L731.09 148.76H760.018L792.786 239ZM981.191 219.8H1009.22V239H956.103V148.76H981.191V219.8ZM1038.95 239H1013.86V148.76H1038.95V239ZM25.2559 216.856H33.96C41.2986 216.856 47.0589 214.851 51.2402 210.84C55.4214 206.829 57.5116 201.155 57.5117 193.816C57.5117 186.392 55.4215 180.675 51.2402 176.664C47.0589 172.568 41.2986 170.52 33.96 170.52H25.2559V216.856ZM640.421 216.856H649.125C656.464 216.856 662.224 214.851 666.405 210.84C670.586 206.829 672.677 201.155 672.677 193.816C672.677 186.393 670.586 180.675 666.405 176.664C662.224 172.568 656.464 170.52 649.125 170.52H640.421V216.856ZM259.921 205.08H279.249L269.521 175.896L259.921 205.08ZM462.561 205.08H481.889L472.161 175.896L462.561 205.08ZM735.826 205.08H755.154L745.426 175.896L735.826 205.08ZM242.658 0.351562C253.154 0.351593 261.517 2.82707 267.746 7.77637C274.061 12.6403 277.432 19.5093 277.858 28.3838H250.594C250.508 25.6534 249.655 23.6055 248.034 22.2402C246.498 20.8749 244.492 20.1924 242.018 20.1924C240.14 20.1925 238.605 20.7472 237.41 21.8564C236.216 22.9657 235.618 24.544 235.618 26.5918C235.618 28.2985 236.258 29.7923 237.538 31.0723C238.903 32.2669 240.568 33.3338 242.53 34.2725C244.493 35.1258 247.395 36.2344 251.234 37.5996C256.952 39.5623 261.645 41.5256 265.314 43.4883C269.069 45.3656 272.269 48.0533 274.914 51.5518C277.645 54.9651 279.01 59.3177 279.01 64.6084C279.01 69.9842 277.645 74.8057 274.914 79.0723C272.269 83.3389 268.386 86.709 263.266 89.1836C258.231 91.6582 252.258 92.8965 245.346 92.8965C234.85 92.8964 226.232 90.421 219.49 85.4717C212.749 80.437 209.122 73.2691 208.61 63.9678H235.362C235.618 67.125 236.557 69.4292 238.178 70.8799C239.799 72.3305 241.89 73.0557 244.45 73.0557C246.754 73.0556 248.631 72.5009 250.082 71.3916C251.618 70.197 252.386 68.5761 252.386 66.5283C252.386 63.883 251.148 61.8345 248.674 60.3838C246.199 58.9332 242.188 57.3115 236.642 55.5195C230.754 53.5569 225.975 51.6796 222.306 49.8877C218.722 48.0104 215.565 45.3227 212.834 41.8242C210.189 38.2402 208.866 33.5894 208.866 27.8721C208.866 22.0696 210.317 17.1203 213.218 13.0244C216.119 8.84308 220.13 5.68509 225.25 3.55176C230.37 1.41845 236.173 0.351562 242.658 0.351562ZM347.889 61.5361C347.889 71.6906 345.116 79.4561 339.569 84.832C334.108 90.208 326.556 92.8965 316.913 92.8965C306.673 92.8965 298.481 90.0376 292.337 84.3203C286.278 78.603 283.249 70.3681 283.249 59.6162H308.081C308.166 66.6986 310.769 70.2401 315.889 70.2402C320.497 70.2402 322.801 67.3387 322.801 61.5361V1.75977H347.889V61.5361ZM804.084 54.1123C804.084 58.9762 805.193 62.7307 807.412 65.376C809.716 68.0213 813.172 69.3438 817.78 69.3438C822.388 69.3437 825.844 68.0213 828.148 65.376C830.538 62.6454 831.732 58.8907 831.732 54.1123V1.75977H856.82V54.1123C856.82 62.3895 855.071 69.4724 851.572 75.3604C848.074 81.1629 843.295 85.5573 837.236 88.5439C831.263 91.4453 824.606 92.8965 817.268 92.8965C809.929 92.8964 803.358 91.4452 797.556 88.5439C791.839 85.5573 787.316 81.1627 783.988 75.3604C780.746 69.5578 779.124 62.4748 779.124 54.1123V1.75977H804.084V54.1123ZM53.1602 60.3838L75.3037 1.75977H105.512V92H80.4238V42.208L63.4004 92H42.4082L25.2559 41.8242V92H0.167969V1.75977H30.5039L53.1602 60.3838ZM205.681 92H179.185L174.321 77.2803H142.321L137.457 92H111.089L143.985 1.75977H172.913L205.681 92ZM385.391 92H360.303V1.75977H385.391V92ZM432.83 1.75977C442.302 1.75977 450.579 3.67958 457.662 7.51953C464.83 11.2741 470.334 16.5651 474.174 23.3916C478.014 30.2183 479.934 38.0271 479.934 46.8164C479.934 55.5202 477.971 63.2857 474.046 70.1123C470.206 76.9388 464.702 82.315 457.534 86.2402C450.452 90.0802 442.217 92 432.83 92H397.118V1.75977H432.83ZM599.071 92H572.575L567.711 77.2803H535.711L530.847 92H504.479L537.375 1.75977H566.303L599.071 92ZM629.776 72.7998H657.808V92H604.688V1.75977H629.776V72.7998ZM712.031 35.6797H742.623V1.75977H767.711V92H742.623V55.7764H712.031V92H686.943V1.75977H712.031V35.6797ZM903.785 1.75977C913.257 1.75978 921.535 3.67957 928.617 7.51953C935.785 11.2741 941.289 16.5651 945.129 23.3916C948.969 30.2183 950.889 38.0271 950.889 46.8164C950.889 55.5202 948.926 63.2857 945.001 70.1123C941.161 76.9388 935.657 82.315 928.489 86.2402C921.407 90.0802 913.172 92 903.785 92H868.073V1.75977H903.785ZM1048.09 92H1021.59L1016.73 77.2803H984.726L979.862 92H953.494L986.39 1.75977H1015.32L1048.09 92ZM422.206 69.8564H430.91C438.249 69.8564 444.009 67.8505 448.19 63.8398C452.371 59.8293 454.462 54.1547 454.462 46.8164C454.462 39.3926 452.372 33.6747 448.19 29.6641C444.009 25.5681 438.249 23.5196 430.91 23.5195H422.206V69.8564ZM893.161 69.8564H901.865C909.204 69.8564 914.964 67.8505 919.146 63.8398C923.327 59.8293 925.417 54.1547 925.417 46.8164C925.417 39.3926 923.327 33.6747 919.146 29.6641C914.964 25.5681 909.204 23.5196 901.865 23.5195H893.161V69.8564ZM148.721 58.0801H168.049L158.321 28.8965L148.721 58.0801ZM542.111 58.0801H561.439L551.711 28.8965L542.111 58.0801ZM991.126 58.0801H1010.45L1000.73 28.8965L991.126 58.0801Z" fill="#B8B8B8"/>
</svg>
